HIERARCHY
ROOT Hips
{
	OFFSET 0.000000 0.000000 0.000000
	CHANNELS 6 Xposition Yposition Zposition Xrotation Yrotation Zrotation
	JOINT LeftUpLeg_virtual
	{
		OFFSET 0.000000 0.000000 0.000000
		CHANNELS 3 Xrotation Yrotation Zrotation
		JOINT LeftUpLeg
		{
			OFFSET 13.026900 -6.336304 -1.092800
			CHANNELS 3 Xrotation Yrotation Zrotation
			JOINT LeftLeg
			{
				OFFSET 0.524474 -46.096886 9.782700
				CHANNELS 3 Xrotation Yrotation Zrotation
				JOINT LeftFoot
				{
					OFFSET -0.524474 -53.427422 -12.948200
					CHANNELS 3 Xrotation Yrotation Zrotation
					JOINT LeftToeBase
					{
						OFFSET 0.192200 -14.009700 16.364100
						CHANNELS 3 Xrotation Yrotation Zrotation
						JOINT LeftToe_End
						{
							OFFSET -1.784700 -0.561700 9.474800
							CHANNELS 3 Xrotation Yrotation Zrotation
							End Site
							{
								OFFSET 0 0 0
							}
						}
					}
				}
			}
		}
	}
	JOINT RightUpLeg_virtual
	{
		OFFSET 0.000000 0.000000 0.000000
		CHANNELS 3 Xrotation Yrotation Zrotation
		JOINT RightUpLeg
		{
			OFFSET -12.883000 -6.336304 -1.092800
			CHANNELS 3 Xrotation Yrotation Zrotation
			JOINT RightLeg
			{
				OFFSET -0.524587 -46.096825 9.782800
				CHANNELS 3 Xrotation Yrotation Zrotation
				JOINT RightFoot
				{
					OFFSET 0.524587 -53.427383 -12.948300
					CHANNELS 3 Xrotation Yrotation Zrotation
					JOINT RightToeBase
					{
						OFFSET -0.192200 -14.009700 16.364100
						CHANNELS 3 Xrotation Yrotation Zrotation
						JOINT RightToe_End
						{
							OFFSET 1.784700 -0.561700 9.474800
							CHANNELS 3 Xrotation Yrotation Zrotation
							End Site
							{
								OFFSET 0 0 0
							}
						}
					}
				}
			}
		}
	}
	JOINT Spine_virtual
	{
		OFFSET 0.000000 0.000000 0.000000
		CHANNELS 3 Xrotation Yrotation Zrotation
		JOINT Spine
		{
			OFFSET 0.072000 7.257294 -0.789700
			CHANNELS 3 Xrotation Yrotation Zrotation
			JOINT Spine1
			{
				OFFSET 0.000000 12.508769 -0.658067
				CHANNELS 3 Xrotation Yrotation Zrotation
				JOINT Spine1_split
				{
					OFFSET 0.000000 12.508769 -0.658067
					CHANNELS 3 Xrotation Yrotation Zrotation
					JOINT Spine2
					{
						OFFSET 0.000000 12.508769 -0.658067
						CHANNELS 3 Xrotation Yrotation Zrotation
						JOINT Neck_virtual
						{
							OFFSET 0.000000 0.000000 0.000000
							CHANNELS 3 Xrotation Yrotation Zrotation
							JOINT Neck
							{
								OFFSET 0.000000 14.033295 7.520400
								CHANNELS 3 Xrotation Yrotation Zrotation
								JOINT Head
								{
									OFFSET 0.000000 8.198502 5.703100
									CHANNELS 3 Xrotation Yrotation Zrotation
									JOINT HeadTop_End
									{
										OFFSET 0.000000 17.760803 13.332701
										CHANNELS 3 Xrotation Yrotation Zrotation
										End Site
										{
											OFFSET 0 0 0
										}
									}
								}
							}
						}
						JOINT LeftShoulder_virtual
						{
							OFFSET 0.000000 0.000000 0.000000
							CHANNELS 3 Xrotation Yrotation Zrotation
							JOINT LeftShoulder
							{
								OFFSET 6.292450 5.785301 -0.669000
								CHANNELS 3 Xrotation Yrotation Zrotation
								JOINT LeftShoulder_split
								{
									OFFSET 6.292450 5.785301 -0.669000
									CHANNELS 3 Xrotation Yrotation Zrotation
									JOINT LeftArm
									{
										OFFSET 13.907140 -6.093903 1.965100
										CHANNELS 3 Xrotation Yrotation Zrotation
										JOINT LeftForeArm
										{
											OFFSET 34.140198 0.000000 0.000000
											CHANNELS 3 Xrotation Yrotation Zrotation
											JOINT LeftHand
											{
												OFFSET 40.960209 0.000000 0.000000
												CHANNELS 3 Xrotation Yrotation Zrotation
												End Site
												{
													OFFSET 0 0 0
												}
											}
										}
									}
								}
							}
						}
						JOINT RightShoulder_virtual
						{
							OFFSET 0.000000 0.000000 0.000000
							CHANNELS 3 Xrotation Yrotation Zrotation
							JOINT RightShoulder
							{
								OFFSET -6.292450 5.785301 -0.669000
								CHANNELS 3 Xrotation Yrotation Zrotation
								JOINT RightShoulder_split
								{
									OFFSET -6.292450 5.785301 -0.669000
									CHANNELS 3 Xrotation Yrotation Zrotation
									JOINT RightArm
									{
										OFFSET -13.907140 -6.093903 1.965100
										CHANNELS 3 Xrotation Yrotation Zrotation
										JOINT RightForeArm
										{
											OFFSET -34.140198 0.000000 0.000000
											CHANNELS 3 Xrotation Yrotation Zrotation
											JOINT RightHand
											{
												OFFSET -40.960209 0.000000 0.000000
												CHANNELS 3 Xrotation Yrotation Zrotation
												End Site
												{
													OFFSET 0 0 0
												}
											}
										}
									}
								}
							}
						}
					}
				}
			}
		}
	}
}
MOTION
Frames: 8
Frame Time: 0.03333333
10.246179 118.321602 -4.606079 0.000000 0.000000 0.000000 -0.974904 -21.530804 -1.563170 -8.307371 6.036432 0.642913 12.919662 10.062943 2.166801 -5.156270 18.689127 -2.784966 -1.984589 0.170612 -1.289386 0.000000 0.000000 0.000000 -0.254543 -21.218611 -1.616166 -14.577550 -8.222372 -8.804805 11.354116 2.652095 -0.589571 -2.403351 -2.947282 6.871876 -6.976247 -0.000252 0.074289 0.000000 0.000000 0.000000 -0.566843 -21.843420 -2.350822 3.973396 1.354921 -1.348037 0.533675 -0.011401 0.131572 1.089964 0.218665 0.256427 0.000000 0.000000 0.000000 1.279837 0.414724 -0.292081 1.099896 -1.019749 2.217530 13.241618 10.316745 5.570241 0.000000 0.000000 0.000000 0.828194 0.444922 -0.175834 2.237047 -2.937774 -11.708549 -0.533930 -1.083832 -1.884209 -6.779858 -19.061991 -55.998341 0.418849 -14.194619 0.412644 0.000000 0.000000 0.000000 0.915315 0.465825 -0.098347 2.388365 -2.660769 16.615458 -0.678878 2.935450 -3.045030 7.193960 2.300722 65.688654 1.834773 20.198739 1.461172 0.000000 0.000000 0.000000 
10.881184 118.314415 -4.264420 0.000000 0.000000 0.000000 -0.948970 -22.399858 -1.749887 -8.282231 6.210925 0.460600 12.788179 10.081810 2.153882 -5.236538 19.421197 -2.577139 -2.023297 0.176337 -1.250383 0.000000 0.000000 0.000000 -0.258054 -22.016603 -1.808380 -14.718658 -8.304360 -8.725129 11.291659 2.868979 -0.610308 -2.613418 -2.832192 6.810327 -6.848823 -0.010196 0.075403 0.000000 0.000000 0.000000 -0.552795 -22.647096 -2.556344 3.734263 0.897692 -1.470918 0.485667 -0.099176 0.110999 1.151431 0.230680 0.247051 0.000000 0.000000 0.000000 1.252647 0.320088 -0.315669 1.092028 -1.113780 2.310726 13.519252 11.249338 5.886644 0.000000 0.000000 0.000000 0.784407 0.363048 -0.195371 2.188793 -3.170761 -11.607795 -0.637020 -1.014670 -1.892500 -7.086302 -20.703394 -56.268837 0.420268 -14.728348 0.423621 0.000000 0.000000 0.000000 0.881757 0.380979 -0.144656 2.448450 -3.219198 16.965222 -0.704699 2.845565 -3.106239 6.780259 2.954557 66.212175 1.850465 20.711804 1.467794 0.000000 0.000000 0.000000 
11.476036 118.323547 -3.931007 0.000000 0.000000 0.000000 -0.898871 -23.259193 -1.936740 -8.286222 6.407562 0.326967 12.643378 10.085765 2.160303 -5.258549 20.101245 -2.386088 -2.068983 0.181235 -1.209705 0.000000 0.000000 0.000000 -0.246051 -22.796062 -2.005591 -14.858059 -8.406237 -8.627508 11.154938 2.984582 -0.633923 -2.742849 -2.738357 6.689471 -6.665306 -0.017782 0.076498 0.000000 0.000000 0.000000 -0.513393 -23.430880 -2.757198 3.517181 0.415469 -1.624284 0.435994 -0.180883 0.073802 1.216780 0.255280 0.241745 0.000000 0.000000 0.000000 1.221726 0.227673 -0.349810 1.095118 -1.204948 2.403580 13.798801 12.108997 6.290025 0.000000 0.000000 0.000000 0.744643 0.287942 -0.224191 2.127032 -3.455919 -11.435950 -0.727242 -0.946843 -1.888466 -7.250444 -22.441229 -56.554485 0.445869 -15.623713 0.448499 0.000000 0.000000 0.000000 0.862667 0.300011 -0.208391 2.509640 -3.807792 17.352801 -0.738433 2.723015 -3.124739 6.235954 3.705621 66.663500 1.870105 21.241716 1.472638 0.000000 0.000000 0.000000 
12.019014 118.365181 -3.616310 0.000000 0.000000 0.000000 -0.803601 -24.049421 -2.113237 -8.335988 6.604047 0.237151 12.470685 10.071158 2.188610 -5.195345 20.705479 -2.212576 -2.123806 0.185929 -1.172474 0.000000 0.000000 0.000000 -0.179188 -23.525202 -2.190066 -14.984093 -8.482958 -8.528342 10.903107 3.013481 -0.664854 -2.706714 -2.657251 6.614437 -6.550049 -0.023516 0.077016 0.000000 0.000000 0.000000 -0.423023 -24.155915 -2.938890 3.307977 -0.088470 -1.826127 0.380689 -0.259610 0.015570 1.243846 0.284811 0.258258 0.000000 0.000000 0.000000 1.179792 0.135182 -0.400005 1.104996 -1.296048 2.521965 14.093124 12.882713 6.778150 0.000000 0.000000 0.000000 0.704871 0.218219 -0.266425 2.052805 -3.780566 -11.178330 -0.800745 -0.874378 -1.867432 -7.253170 -24.242402 -56.883291 0.507234 -16.940539 0.487265 0.000000 0.000000 0.000000 0.852398 0.220745 -0.293897 2.574260 -4.427793 17.761642 -0.775566 2.568895 -3.108119 5.632059 4.517963 67.027836 1.890410 21.756388 1.485142 0.000000 0.000000 0.000000 
12.510557 118.446465 -3.314365 0.000000 0.000000 0.000000 -0.646223 -24.726564 -2.276685 -8.460036 6.785722 0.194569 12.256951 10.042609 2.238272 -5.046786 21.211238 -2.062024 -2.166971 0.190843 -1.146700 0.000000 0.000000 0.000000 -0.026390 -24.191074 -2.352573 -15.078338 -8.493894 -8.416501 10.491218 2.964938 -0.707043 -2.513554 -2.589234 6.636008 -6.524198 -0.028171 0.079181 0.000000 0.000000 0.000000 -0.259565 -24.794791 -3.096290 3.096363 -0.607168 -2.092221 0.317878 -0.341897 -0.060630 1.260374 0.321538 0.304628 0.000000 0.000000 0.000000 1.125913 0.039905 -0.466736 1.099816 -1.390770 2.688690 14.402215 13.555904 7.348225 0.000000 0.000000 0.000000 0.664795 0.147739 -0.321936 1.969286 -4.135169 -10.832584 -0.860469 -0.778333 -1.856706 -7.127092 -26.039415 -57.273236 0.596400 -18.615202 0.526907 0.000000 0.000000 0.000000 0.843509 0.137396 -0.397435 2.644504 -5.067316 18.173988 -0.798738 2.390989 -3.067461 5.056440 5.343829 67.318686 1.912911 22.269439 1.508455 0.000000 0.000000 0.000000 
12.947086 118.564117 -3.027676 0.000000 0.000000 0.000000 -0.412737 -25.279604 -2.427503 -8.667488 6.941501 0.208083 12.014225 9.995099 2.303951 -4.810786 21.606204 -1.959881 -2.179092 0.196498 -1.131958 0.000000 0.000000 0.000000 0.211677 -24.768388 -2.497315 -15.125159 -8.419532 -8.276404 9.943953 2.844193 -0.760172 -2.252405 -2.531072 6.737179 -6.519676 -0.031013 0.089007 0.000000 0.000000 0.000000 -0.016382 -25.345948 -3.233497 2.888948 -1.127662 -2.429005 0.247366 -0.434203 -0.148698 1.258375 0.353854 0.359320 0.000000 0.000000 0.000000 1.062677 -0.061214 -0.544088 1.076552 -1.487965 2.916658 14.719814 14.109374 7.989006 0.000000 0.000000 0.000000 0.624805 0.068508 -0.387601 1.880184 -4.512984 -10.422222 -0.918721 -0.637519 -1.860478 -6.888374 -27.760382 -57.713207 0.690061 -20.502479 0.555283 0.000000 0.000000 0.000000 0.831886 0.044346 -0.511899 2.721548 -5.705604 18.564029 -0.798826 2.222198 -3.012054 4.593517 6.136605 67.558241 1.941236 22.808659 1.539767 0.000000 0.000000 0.000000 
13.332738 118.710495 -2.765278 0.000000 0.000000 0.000000 -0.102326 -25.738526 -2.569475 -8.966039 7.054007 0.284906 11.777777 9.925552 2.378468 -4.501438 21.894943 -1.923710 -2.159616 0.204694 -1.123946 0.000000 0.000000 0.000000 0.521042 -25.251713 -2.632793 -15.122555 -8.264540 -8.090669 9.374391 2.636131 -0.823996 -2.022991 -2.498073 6.844959 -6.437623 -0.030987 0.116518 0.000000 0.000000 0.000000 0.297259 -25.827396 -3.360641 2.698050 -1.627580 -2.836536 0.177010 -0.536407 -0.239523 1.246637 0.374673 0.415086 0.000000 0.000000 0.000000 0.996022 -0.167816 -0.624883 1.034491 -1.585573 3.198829 15.035645 14.533802 8.683027 0.000000 0.000000 0.000000 0.589151 -0.022459 -0.457521 1.787801 -4.899584 -9.970519 -1.004459 -0.493788 -1.881284 -6.577002 -29.295938 -58.166014 0.743893 -22.427297 0.557960 0.000000 0.000000 0.000000 0.815891 -0.059548 -0.627547 2.802843 -6.314381 18.909633 -0.799418 2.071624 -2.953243 4.288458 6.864664 67.764882 1.974850 23.395459 1.572386 0.000000 0.000000 0.000000 
13.666537 118.869431 -2.524200 0.000000 0.000000 0.000000 0.263024 -26.137428 -2.714337 -9.331618 7.131139 0.420816 11.569996 9.854822 2.462229 -4.174705 22.104473 -1.930815 -2.109716 0.215444 -1.116290 0.000000 0.000000 0.000000 0.863793 -25.668066 -2.778327 -15.107479 -8.052460 -7.856726 8.868660 2.340992 -0.893913 -1.870463 -2.498099 6.942367 -6.273463 -0.027333 0.157640 0.000000 0.000000 0.000000 0.663337 -26.261529 -3.491713 2.549156 -2.080162 -3.306626 0.112903 -0.643022 -0.325696 1.247075 0.385141 0.434603 0.000000 0.000000 0.000000 0.932095 -0.275678 -0.701783 0.981465 -1.673715 3.516122 15.332545 14.829099 9.394748 0.000000 0.000000 0.000000 0.562240 -0.123545 -0.525775 1.698132 -5.284275 -9.516442 -1.105524 -0.340997 -1.913230 -6.257777 -30.577777 -58.584062 0.738676 -24.242539 0.531927 0.000000 0.000000 0.000000 0.800170 -0.167810 -0.735039 2.883934 -6.860769 19.192668 -0.811855 1.951501 -2.893215 4.157769 7.491880 67.946722 2.017848 24.036011 1.598810 0.000000 0.000000 0.000000 
